<svg xmlns="http://www.w3.org/2000/svg" viewBox="0 0 128 128" aria-hidden="true">
  <rect width="128" height="128" rx="28" fill="#fff7ef"/>
  <path fill="#e17726" d="M24 26 54 49 49 36z"/>
  <path fill="#e27625" d="M104 26 75 49 79 36z"/>
  <path fill="#e27625" d="m35 79 16 25-34 10z"/>
  <path fill="#e27625" d="m93 79-16 25 34 10z"/>
  <path fill="#e27625" d="M75 90 73 108 88 119l8-27z"/>
  <path fill="#d5bfb2" d="M40 92 48 119l15-11-2-18z"/>
  <path fill="#233447" d="m63 81-10-3 7-3z"/>
  <path fill="#233447" d="m65 81 10-3-7-3z"/>
  <path fill="#cc6228" d="m40 92 2-32-24 19z"/>
  <path fill="#cc6228" d="m86 92-2-32 24 19z"/>
  <path fill="#e27525" d="m40 92 19-1-2 17z"/>
  <path fill="#e27525" d="m88 92-19-1 2 17z"/>
  <path fill="#f5841f" d="m69 74 6 4 10-3-4-2z"/>
  <path fill="#f5841f" d="m59 74-6 4-10-3 4-2z"/>
  <path fill="#f5841f" d="m48 81 12-6-10-5z"/>
  <path fill="#f5841f" d="m80 81-12-6 10-5z"/>
  <path fill="#763d16" d="m48 81 15 8-4-15z"/>
  <path fill="#763d16" d="m80 81-15 8 4-15z"/>
</svg>
